<mxfile host="app.diagrams.net" modified="2022-08-31T14:51:17.935Z" agent="5.0 (Windows)" etag="xIErXq3o3YO-xqhuuLJL" version="18.0.0" type="github">
  <diagram name="Page-1" id="c7558073-3199-34d8-9f00-42111426c3f3">
    <mxGraphModel dx="3124" dy="852" grid="1" gridSize="10" guides="1" tooltips="1" connect="1" arrows="1" fold="1" page="1" pageScale="1" pageWidth="1169" pageHeight="827" background="none" math="0" shadow="0">
      <root>
        <mxCell id="0" />
        <mxCell id="1" parent="0" />
        <mxCell id="sUEPmZAmfP3GFt_vuGZX-178" value="&lt;div align=&quot;left&quot;&gt;&lt;font style=&quot;font-size: 6px;&quot;&gt;&lt;span data-sheets-userformat=&quot;{&amp;quot;2&amp;quot;:9213,&amp;quot;3&amp;quot;:{&amp;quot;1&amp;quot;:0},&amp;quot;5&amp;quot;:{&amp;quot;1&amp;quot;:[{&amp;quot;1&amp;quot;:2,&amp;quot;2&amp;quot;:0,&amp;quot;5&amp;quot;:{&amp;quot;1&amp;quot;:2,&amp;quot;2&amp;quot;:0}},{&amp;quot;1&amp;quot;:0,&amp;quot;2&amp;quot;:0,&amp;quot;3&amp;quot;:3},{&amp;quot;1&amp;quot;:1,&amp;quot;2&amp;quot;:0,&amp;quot;4&amp;quot;:1}]},&amp;quot;6&amp;quot;:{&amp;quot;1&amp;quot;:[{&amp;quot;1&amp;quot;:2,&amp;quot;2&amp;quot;:0,&amp;quot;5&amp;quot;:{&amp;quot;1&amp;quot;:2,&amp;quot;2&amp;quot;:0}},{&amp;quot;1&amp;quot;:0,&amp;quot;2&amp;quot;:0,&amp;quot;3&amp;quot;:3},{&amp;quot;1&amp;quot;:1,&amp;quot;2&amp;quot;:0,&amp;quot;4&amp;quot;:1}]},&amp;quot;7&amp;quot;:{&amp;quot;1&amp;quot;:[{&amp;quot;1&amp;quot;:2,&amp;quot;2&amp;quot;:0,&amp;quot;5&amp;quot;:{&amp;quot;1&amp;quot;:2,&amp;quot;2&amp;quot;:0}},{&amp;quot;1&amp;quot;:0,&amp;quot;2&amp;quot;:0,&amp;quot;3&amp;quot;:3},{&amp;quot;1&amp;quot;:1,&amp;quot;2&amp;quot;:0,&amp;quot;4&amp;quot;:1}]},&amp;quot;8&amp;quot;:{&amp;quot;1&amp;quot;:[{&amp;quot;1&amp;quot;:2,&amp;quot;2&amp;quot;:0,&amp;quot;5&amp;quot;:{&amp;quot;1&amp;quot;:2,&amp;quot;2&amp;quot;:0}},{&amp;quot;1&amp;quot;:0,&amp;quot;2&amp;quot;:0,&amp;quot;3&amp;quot;:3},{&amp;quot;1&amp;quot;:1,&amp;quot;2&amp;quot;:0,&amp;quot;4&amp;quot;:1}]},&amp;quot;9&amp;quot;:0,&amp;quot;10&amp;quot;:1,&amp;quot;11&amp;quot;:4,&amp;quot;12&amp;quot;:0,&amp;quot;16&amp;quot;:12}&quot; data-sheets-value=&quot;{&amp;quot;1&amp;quot;:2,&amp;quot;2&amp;quot;:&amp;quot;推動生物多樣性調查資料的開放&amp;quot;}&quot; style=&quot;font-size:12pt;font-family:Arial;font-style:normal;&quot;&gt;1. 推動生物多樣性調查資料的開放&lt;/span&gt;&lt;/font&gt;&lt;/div&gt;" style="ellipse;whiteSpace=wrap;html=1;align=center;newEdgeStyle={&quot;edgeStyle&quot;:&quot;entityRelationEdgeStyle&quot;,&quot;startArrow&quot;:&quot;none&quot;,&quot;endArrow&quot;:&quot;none&quot;,&quot;segment&quot;:10,&quot;curved&quot;:1};treeFolding=1;treeMoving=1;fontFamily=Garamond;fillColor=#97D077;shadow=0;" vertex="1" parent="1">
          <mxGeometry x="-670" y="50" width="440" height="46.79012345679012" as="geometry" />
        </mxCell>
        <mxCell id="sUEPmZAmfP3GFt_vuGZX-198" style="edgeStyle=orthogonalEdgeStyle;rounded=0;orthogonalLoop=1;jettySize=auto;html=1;exitX=0;exitY=0.5;exitDx=0;exitDy=0;entryX=1;entryY=0.5;entryDx=0;entryDy=0;fontFamily=Verdana;fontSize=8;" edge="1" parent="1" source="sUEPmZAmfP3GFt_vuGZX-166" target="sUEPmZAmfP3GFt_vuGZX-186">
          <mxGeometry relative="1" as="geometry" />
        </mxCell>
        <mxCell id="sUEPmZAmfP3GFt_vuGZX-199" style="edgeStyle=orthogonalEdgeStyle;rounded=0;orthogonalLoop=1;jettySize=auto;html=1;exitX=0;exitY=0.5;exitDx=0;exitDy=0;entryX=1;entryY=0.5;entryDx=0;entryDy=0;fontFamily=Verdana;fontSize=8;" edge="1" parent="1" source="sUEPmZAmfP3GFt_vuGZX-166" target="sUEPmZAmfP3GFt_vuGZX-189">
          <mxGeometry relative="1" as="geometry" />
        </mxCell>
        <mxCell id="sUEPmZAmfP3GFt_vuGZX-200" style="edgeStyle=orthogonalEdgeStyle;rounded=0;orthogonalLoop=1;jettySize=auto;html=1;exitX=0;exitY=0.5;exitDx=0;exitDy=0;entryX=1;entryY=0.5;entryDx=0;entryDy=0;fontFamily=Verdana;fontSize=8;" edge="1" parent="1" source="sUEPmZAmfP3GFt_vuGZX-166" target="sUEPmZAmfP3GFt_vuGZX-194">
          <mxGeometry relative="1" as="geometry" />
        </mxCell>
        <mxCell id="sUEPmZAmfP3GFt_vuGZX-219" style="edgeStyle=orthogonalEdgeStyle;rounded=0;orthogonalLoop=1;jettySize=auto;html=1;exitX=0;exitY=0.5;exitDx=0;exitDy=0;entryX=1;entryY=0.5;entryDx=0;entryDy=0;fontFamily=Verdana;fontSize=8;fontColor=#FFFFFF;" edge="1" parent="1" source="sUEPmZAmfP3GFt_vuGZX-166" target="sUEPmZAmfP3GFt_vuGZX-185">
          <mxGeometry relative="1" as="geometry" />
        </mxCell>
        <mxCell id="sUEPmZAmfP3GFt_vuGZX-166" value="TBIA&#xa;入口網" style="whiteSpace=wrap;align=center;verticalAlign=middle;fontStyle=1;strokeWidth=3;fillColor=#FFFFCC" vertex="1" parent="1">
          <mxGeometry x="140" y="651" width="90" height="60" as="geometry" />
        </mxCell>
        <mxCell id="sUEPmZAmfP3GFt_vuGZX-187" style="edgeStyle=orthogonalEdgeStyle;rounded=0;orthogonalLoop=1;jettySize=auto;html=1;exitX=0;exitY=0.5;exitDx=0;exitDy=0;fontFamily=Verdana;fontSize=8;entryX=1;entryY=1;entryDx=0;entryDy=0;" edge="1" parent="1" source="sUEPmZAmfP3GFt_vuGZX-185" target="sUEPmZAmfP3GFt_vuGZX-179">
          <mxGeometry relative="1" as="geometry" />
        </mxCell>
        <mxCell id="sUEPmZAmfP3GFt_vuGZX-185" value="&lt;div&gt;&lt;font style=&quot;font-size: 8px;&quot;&gt;2-1 &lt;br&gt;&lt;/font&gt;&lt;/div&gt;&lt;div&gt;&lt;font style=&quot;font-size: 8px;&quot;&gt;奠基於生物分布資料標準，發展開放資料之應用程式介面服務(Open data API services)&lt;/font&gt;&lt;/div&gt;" style="shape=process;whiteSpace=wrap;html=1;backgroundOutline=1;fontFamily=Garamond;fontSize=6;fillColor=#FFFFFF;" vertex="1" parent="1">
          <mxGeometry x="-50" y="451" width="120" height="61" as="geometry" />
        </mxCell>
        <mxCell id="sUEPmZAmfP3GFt_vuGZX-188" style="edgeStyle=orthogonalEdgeStyle;rounded=0;orthogonalLoop=1;jettySize=auto;html=1;exitX=0;exitY=0.5;exitDx=0;exitDy=0;fontFamily=Verdana;fontSize=8;entryX=0.5;entryY=1;entryDx=0;entryDy=0;" edge="1" parent="1" source="sUEPmZAmfP3GFt_vuGZX-186" target="sUEPmZAmfP3GFt_vuGZX-180">
          <mxGeometry relative="1" as="geometry" />
        </mxCell>
        <mxCell id="sUEPmZAmfP3GFt_vuGZX-186" value="&lt;div&gt;&lt;font style=&quot;font-size: 8px;&quot;&gt;3-4&lt;/font&gt;&lt;/div&gt;&lt;div&gt;&lt;font style=&quot;font-size: 8px;&quot;&gt;協助夥伴單位發展或於入口網建置主題式資料服務，包含資料視覺化等資料產品，供各界應用&lt;/font&gt;&lt;/div&gt;" style="shape=process;whiteSpace=wrap;html=1;backgroundOutline=1;fontFamily=Garamond;fontSize=6;fillColor=#F8CECC;" vertex="1" parent="1">
          <mxGeometry x="-50" y="542.88" width="120" height="61" as="geometry" />
        </mxCell>
        <mxCell id="sUEPmZAmfP3GFt_vuGZX-190" style="edgeStyle=orthogonalEdgeStyle;rounded=0;orthogonalLoop=1;jettySize=auto;html=1;exitX=0;exitY=0.5;exitDx=0;exitDy=0;entryX=1;entryY=0.5;entryDx=0;entryDy=0;fontFamily=Verdana;fontSize=8;" edge="1" parent="1" source="sUEPmZAmfP3GFt_vuGZX-189" target="sUEPmZAmfP3GFt_vuGZX-181">
          <mxGeometry relative="1" as="geometry" />
        </mxCell>
        <mxCell id="sUEPmZAmfP3GFt_vuGZX-189" value="&lt;div&gt;&lt;font style=&quot;font-size: 8px;&quot;&gt;4-1&lt;/font&gt;&lt;/div&gt;&lt;div&gt;&lt;font style=&quot;font-size: 8px;&quot;&gt;建立跨機關的資料介接機制，以強化生物多樣性資訊技術的交流&lt;/font&gt;&lt;/div&gt;" style="shape=process;whiteSpace=wrap;html=1;backgroundOutline=1;fontFamily=Garamond;fontSize=6;fillColor=#FFFFFF;" vertex="1" parent="1">
          <mxGeometry x="-50" y="632.88" width="120" height="61" as="geometry" />
        </mxCell>
        <mxCell id="sUEPmZAmfP3GFt_vuGZX-196" style="edgeStyle=orthogonalEdgeStyle;rounded=0;orthogonalLoop=1;jettySize=auto;html=1;exitX=0;exitY=0.5;exitDx=0;exitDy=0;entryX=0.5;entryY=1;entryDx=0;entryDy=0;fontFamily=Verdana;fontSize=8;" edge="1" parent="1" source="sUEPmZAmfP3GFt_vuGZX-194" target="sUEPmZAmfP3GFt_vuGZX-183">
          <mxGeometry relative="1" as="geometry" />
        </mxCell>
        <mxCell id="sUEPmZAmfP3GFt_vuGZX-194" value="&lt;div&gt;&lt;font style=&quot;font-size: 8px;&quot;&gt;5-5&lt;/font&gt;&lt;/div&gt;&lt;div&gt;&lt;font style=&quot;font-size: 8px;&quot;&gt;發展環境影響評估相關分析工具，提升資料價值與可用性。&lt;/font&gt;&lt;/div&gt;" style="shape=process;whiteSpace=wrap;html=1;backgroundOutline=1;fontFamily=Garamond;fontSize=6;fillColor=#F8CECC;" vertex="1" parent="1">
          <mxGeometry x="-50" y="722.88" width="120" height="61" as="geometry" />
        </mxCell>
        <mxCell id="sUEPmZAmfP3GFt_vuGZX-206" style="edgeStyle=orthogonalEdgeStyle;rounded=0;orthogonalLoop=1;jettySize=auto;html=1;exitX=1;exitY=0.5;exitDx=0;exitDy=0;entryX=0;entryY=0.5;entryDx=0;entryDy=0;fontFamily=Verdana;fontSize=8;fontColor=#FFFFFF;" edge="1" parent="1" source="sUEPmZAmfP3GFt_vuGZX-203" target="sUEPmZAmfP3GFt_vuGZX-205">
          <mxGeometry relative="1" as="geometry" />
        </mxCell>
        <mxCell id="sUEPmZAmfP3GFt_vuGZX-212" style="edgeStyle=orthogonalEdgeStyle;rounded=0;orthogonalLoop=1;jettySize=auto;html=1;exitX=1;exitY=0.5;exitDx=0;exitDy=0;entryX=0;entryY=0.5;entryDx=0;entryDy=0;fontFamily=Verdana;fontSize=6;fontColor=#FFFFFF;" edge="1" parent="1" source="sUEPmZAmfP3GFt_vuGZX-203" target="sUEPmZAmfP3GFt_vuGZX-208">
          <mxGeometry relative="1" as="geometry" />
        </mxCell>
        <mxCell id="sUEPmZAmfP3GFt_vuGZX-214" style="edgeStyle=orthogonalEdgeStyle;rounded=0;orthogonalLoop=1;jettySize=auto;html=1;exitX=1;exitY=0.5;exitDx=0;exitDy=0;entryX=0;entryY=0.5;entryDx=0;entryDy=0;fontFamily=Verdana;fontSize=8;fontColor=#FFFFFF;" edge="1" parent="1" source="sUEPmZAmfP3GFt_vuGZX-203" target="sUEPmZAmfP3GFt_vuGZX-213">
          <mxGeometry relative="1" as="geometry" />
        </mxCell>
        <mxCell id="sUEPmZAmfP3GFt_vuGZX-203" value="TBIA&#xa;年度成果報告" style="whiteSpace=wrap;align=center;verticalAlign=middle;fontStyle=1;strokeWidth=3;fillColor=#FFFFCC" vertex="1" parent="1">
          <mxGeometry x="-1060" y="185.76999999999998" width="90" height="60" as="geometry" />
        </mxCell>
        <mxCell id="sUEPmZAmfP3GFt_vuGZX-207" style="edgeStyle=orthogonalEdgeStyle;rounded=0;orthogonalLoop=1;jettySize=auto;html=1;exitX=1;exitY=0.5;exitDx=0;exitDy=0;entryX=0;entryY=0.5;entryDx=0;entryDy=0;fontFamily=Verdana;fontSize=8;fontColor=#FFFFFF;" edge="1" parent="1" source="sUEPmZAmfP3GFt_vuGZX-205" target="sUEPmZAmfP3GFt_vuGZX-178">
          <mxGeometry relative="1" as="geometry" />
        </mxCell>
        <mxCell id="sUEPmZAmfP3GFt_vuGZX-205" value="&lt;div&gt;&lt;font style=&quot;font-size: 8px;&quot;&gt;1-2&lt;/font&gt;&lt;/div&gt;&lt;div&gt;&lt;font style=&quot;font-size: 8px;&quot;&gt;提升資料提供者貢獻資料的回饋價值，制定具體作法，以促進認同。&lt;/font&gt;&lt;/div&gt;" style="shape=process;whiteSpace=wrap;html=1;backgroundOutline=1;fontFamily=Garamond;fontSize=6;fillColor=#F8CECC;" vertex="1" parent="1">
          <mxGeometry x="-930" y="145.76999999999998" width="120" height="61" as="geometry" />
        </mxCell>
        <mxCell id="sUEPmZAmfP3GFt_vuGZX-244" style="edgeStyle=orthogonalEdgeStyle;rounded=0;orthogonalLoop=1;jettySize=auto;html=1;exitX=1;exitY=0.5;exitDx=0;exitDy=0;entryX=0;entryY=0.5;entryDx=0;entryDy=0;fontFamily=Verdana;fontSize=8;fontColor=#FFFFFF;" edge="1" parent="1" source="sUEPmZAmfP3GFt_vuGZX-208" target="sUEPmZAmfP3GFt_vuGZX-180">
          <mxGeometry relative="1" as="geometry" />
        </mxCell>
        <mxCell id="sUEPmZAmfP3GFt_vuGZX-208" value="&lt;div&gt;&lt;font style=&quot;font-size: 6px;&quot;&gt;3-2&lt;/font&gt;&lt;/div&gt;&lt;div&gt;&lt;font style=&quot;font-size: 6px;&quot;&gt;向大眾推廣生物多樣性資訊的知識、TBIA成果、以及夥伴單位的推動事務，同時持續關注與參與相關的國際訊息與活動，以提高台灣生物多樣性資訊領域在國內外的能見度&lt;/font&gt;&lt;/div&gt;" style="shape=process;whiteSpace=wrap;html=1;backgroundOutline=1;fontFamily=Garamond;fontSize=6;fillColor=#FFFFFF;" vertex="1" parent="1">
          <mxGeometry x="-930" y="236.76999999999998" width="120" height="61" as="geometry" />
        </mxCell>
        <mxCell id="sUEPmZAmfP3GFt_vuGZX-215" style="edgeStyle=orthogonalEdgeStyle;rounded=0;orthogonalLoop=1;jettySize=auto;html=1;exitX=1;exitY=0.5;exitDx=0;exitDy=0;entryX=0;entryY=0.5;entryDx=0;entryDy=0;fontFamily=Verdana;fontSize=8;fontColor=#FFFFFF;" edge="1" parent="1" source="sUEPmZAmfP3GFt_vuGZX-213" target="sUEPmZAmfP3GFt_vuGZX-183">
          <mxGeometry relative="1" as="geometry" />
        </mxCell>
        <mxCell id="sUEPmZAmfP3GFt_vuGZX-213" value="&lt;div&gt;&lt;font style=&quot;font-size: 8px;&quot;&gt;5-3&lt;/font&gt;&lt;/div&gt;&lt;div&gt;&lt;font style=&quot;font-size: 8px;&quot;&gt;提升政府機關及相關決策單位對於開放資料概念之認知並取得認同。&lt;/font&gt;&lt;/div&gt;" style="shape=process;whiteSpace=wrap;html=1;backgroundOutline=1;fontFamily=Garamond;fontSize=6;fillColor=#FFFFFF;" vertex="1" parent="1">
          <mxGeometry x="-930" y="326.77" width="120" height="61" as="geometry" />
        </mxCell>
        <mxCell id="sUEPmZAmfP3GFt_vuGZX-222" style="edgeStyle=orthogonalEdgeStyle;rounded=0;orthogonalLoop=1;jettySize=auto;html=1;exitX=1;exitY=0.5;exitDx=0;exitDy=0;entryX=0;entryY=0.5;entryDx=0;entryDy=0;fontFamily=Verdana;fontSize=8;fontColor=#FFFFFF;" edge="1" parent="1" source="sUEPmZAmfP3GFt_vuGZX-216" target="sUEPmZAmfP3GFt_vuGZX-217">
          <mxGeometry relative="1" as="geometry" />
        </mxCell>
        <mxCell id="sUEPmZAmfP3GFt_vuGZX-223" style="edgeStyle=orthogonalEdgeStyle;rounded=0;orthogonalLoop=1;jettySize=auto;html=1;exitX=1;exitY=0.5;exitDx=0;exitDy=0;entryX=0;entryY=0.5;entryDx=0;entryDy=0;fontFamily=Verdana;fontSize=8;fontColor=#FFFFFF;" edge="1" parent="1" source="sUEPmZAmfP3GFt_vuGZX-216" target="sUEPmZAmfP3GFt_vuGZX-220">
          <mxGeometry relative="1" as="geometry" />
        </mxCell>
        <mxCell id="sUEPmZAmfP3GFt_vuGZX-224" style="edgeStyle=orthogonalEdgeStyle;rounded=0;orthogonalLoop=1;jettySize=auto;html=1;exitX=1;exitY=0.5;exitDx=0;exitDy=0;entryX=0;entryY=0.5;entryDx=0;entryDy=0;fontFamily=Verdana;fontSize=8;fontColor=#FFFFFF;" edge="1" parent="1" source="sUEPmZAmfP3GFt_vuGZX-216" target="sUEPmZAmfP3GFt_vuGZX-221">
          <mxGeometry relative="1" as="geometry" />
        </mxCell>
        <mxCell id="sUEPmZAmfP3GFt_vuGZX-216" value="迷你工作坊" style="whiteSpace=wrap;align=center;verticalAlign=middle;fontStyle=1;strokeWidth=3;fillColor=#FFFFCC" vertex="1" parent="1">
          <mxGeometry x="-1130" y="567.12" width="90" height="60" as="geometry" />
        </mxCell>
        <mxCell id="sUEPmZAmfP3GFt_vuGZX-225" style="edgeStyle=orthogonalEdgeStyle;rounded=0;orthogonalLoop=1;jettySize=auto;html=1;exitX=1;exitY=0.5;exitDx=0;exitDy=0;entryX=0;entryY=0.5;entryDx=0;entryDy=0;fontFamily=Verdana;fontSize=8;fontColor=#FFFFFF;" edge="1" parent="1" source="sUEPmZAmfP3GFt_vuGZX-217" target="sUEPmZAmfP3GFt_vuGZX-178">
          <mxGeometry relative="1" as="geometry" />
        </mxCell>
        <mxCell id="sUEPmZAmfP3GFt_vuGZX-217" value="&lt;div&gt;&lt;font style=&quot;font-size: 8px;&quot;&gt;1-1&lt;/font&gt;&lt;/div&gt;&lt;div&gt;&lt;font style=&quot;font-size: 8px;&quot;&gt;擴增與更新生物多樣性領域資料標準並提供開放資料模板。&lt;/font&gt;&lt;/div&gt;" style="shape=process;whiteSpace=wrap;html=1;backgroundOutline=1;fontFamily=Garamond;fontSize=6;fillColor=#FFFFFF;" vertex="1" parent="1">
          <mxGeometry x="-1000" y="470" width="120" height="61" as="geometry" />
        </mxCell>
        <mxCell id="sUEPmZAmfP3GFt_vuGZX-246" style="edgeStyle=orthogonalEdgeStyle;rounded=0;orthogonalLoop=1;jettySize=auto;html=1;exitX=1;exitY=0.5;exitDx=0;exitDy=0;entryX=0;entryY=0.5;entryDx=0;entryDy=0;fontFamily=Verdana;fontSize=8;fontColor=#FFFFFF;" edge="1" parent="1" source="sUEPmZAmfP3GFt_vuGZX-220" target="sUEPmZAmfP3GFt_vuGZX-181">
          <mxGeometry relative="1" as="geometry" />
        </mxCell>
        <mxCell id="sUEPmZAmfP3GFt_vuGZX-220" value="&lt;div&gt;&lt;font style=&quot;font-size: 8px;&quot;&gt;4-2&lt;/font&gt;&lt;/div&gt;&lt;div&gt;&lt;font style=&quot;font-size: 8px;&quot;&gt;成立工具發展交流小組，並定期舉行會議制定相關標準，以確保夥伴間的工具能夠互通&lt;/font&gt;&lt;/div&gt;" style="shape=process;whiteSpace=wrap;html=1;backgroundOutline=1;fontFamily=Garamond;fontSize=6;fillColor=#FFFFFF;" vertex="1" parent="1">
          <mxGeometry x="-1000" y="547.12" width="120" height="61" as="geometry" />
        </mxCell>
        <mxCell id="sUEPmZAmfP3GFt_vuGZX-245" style="edgeStyle=orthogonalEdgeStyle;rounded=0;orthogonalLoop=1;jettySize=auto;html=1;exitX=1;exitY=0.5;exitDx=0;exitDy=0;entryX=0;entryY=0.5;entryDx=0;entryDy=0;fontFamily=Verdana;fontSize=8;fontColor=#FFFFFF;" edge="1" parent="1" source="sUEPmZAmfP3GFt_vuGZX-221" target="sUEPmZAmfP3GFt_vuGZX-183">
          <mxGeometry relative="1" as="geometry" />
        </mxCell>
        <mxCell id="sUEPmZAmfP3GFt_vuGZX-221" value="&lt;div&gt;&lt;font style=&quot;font-size: 8px;&quot;&gt;5-4&lt;/font&gt;&lt;/div&gt;&lt;div&gt;&lt;font style=&quot;font-size: 8px;&quot;&gt;建立、參與並加強與不同產學領域之潛在合作關係，擴大生物多樣性開放資料的應用範圍，促進永續合作模式。&lt;/font&gt;&lt;/div&gt;" style="shape=process;whiteSpace=wrap;html=1;backgroundOutline=1;fontFamily=Garamond;fontSize=6;fillColor=#FFFFFF;" vertex="1" parent="1">
          <mxGeometry x="-1000" y="627.12" width="120" height="61" as="geometry" />
        </mxCell>
        <mxCell id="sUEPmZAmfP3GFt_vuGZX-234" style="edgeStyle=orthogonalEdgeStyle;rounded=0;orthogonalLoop=1;jettySize=auto;html=1;exitX=0;exitY=0.5;exitDx=0;exitDy=0;entryX=1;entryY=0.5;entryDx=0;entryDy=0;fontFamily=Verdana;fontSize=8;fontColor=#FFFFFF;" edge="1" parent="1" source="sUEPmZAmfP3GFt_vuGZX-230" target="sUEPmZAmfP3GFt_vuGZX-231">
          <mxGeometry relative="1" as="geometry" />
        </mxCell>
        <mxCell id="sUEPmZAmfP3GFt_vuGZX-235" style="edgeStyle=orthogonalEdgeStyle;rounded=0;orthogonalLoop=1;jettySize=auto;html=1;exitX=0;exitY=0.5;exitDx=0;exitDy=0;entryX=1;entryY=0.5;entryDx=0;entryDy=0;fontFamily=Verdana;fontSize=8;fontColor=#FFFFFF;" edge="1" parent="1" source="sUEPmZAmfP3GFt_vuGZX-230" target="sUEPmZAmfP3GFt_vuGZX-232">
          <mxGeometry relative="1" as="geometry" />
        </mxCell>
        <mxCell id="sUEPmZAmfP3GFt_vuGZX-236" style="edgeStyle=orthogonalEdgeStyle;rounded=0;orthogonalLoop=1;jettySize=auto;html=1;exitX=0;exitY=0.5;exitDx=0;exitDy=0;entryX=1;entryY=0.5;entryDx=0;entryDy=0;fontFamily=Verdana;fontSize=8;fontColor=#FFFFFF;" edge="1" parent="1" source="sUEPmZAmfP3GFt_vuGZX-230" target="sUEPmZAmfP3GFt_vuGZX-233">
          <mxGeometry relative="1" as="geometry" />
        </mxCell>
        <mxCell id="sUEPmZAmfP3GFt_vuGZX-239" style="edgeStyle=orthogonalEdgeStyle;rounded=0;orthogonalLoop=1;jettySize=auto;html=1;exitX=0;exitY=0.5;exitDx=0;exitDy=0;fontFamily=Verdana;fontSize=8;fontColor=#FFFFFF;" edge="1" parent="1" source="sUEPmZAmfP3GFt_vuGZX-230" target="sUEPmZAmfP3GFt_vuGZX-238">
          <mxGeometry relative="1" as="geometry" />
        </mxCell>
        <mxCell id="sUEPmZAmfP3GFt_vuGZX-230" value="TBIA&#xa;秘書處 &#xa;+ 例行例會" style="whiteSpace=wrap;align=center;verticalAlign=middle;fontStyle=1;strokeWidth=3;fillColor=#FFFFCC" vertex="1" parent="1">
          <mxGeometry x="80" y="119" width="90" height="60" as="geometry" />
        </mxCell>
        <mxCell id="sUEPmZAmfP3GFt_vuGZX-241" style="edgeStyle=orthogonalEdgeStyle;rounded=0;orthogonalLoop=1;jettySize=auto;html=1;exitX=0;exitY=0.5;exitDx=0;exitDy=0;entryX=1;entryY=0.5;entryDx=0;entryDy=0;fontFamily=Verdana;fontSize=8;fontColor=#FFFFFF;" edge="1" parent="1" source="sUEPmZAmfP3GFt_vuGZX-231" target="sUEPmZAmfP3GFt_vuGZX-179">
          <mxGeometry relative="1" as="geometry" />
        </mxCell>
        <mxCell id="sUEPmZAmfP3GFt_vuGZX-231" value="&lt;div&gt;&lt;font style=&quot;font-size: 8px;&quot;&gt;2-3&lt;/font&gt;&lt;/div&gt;&lt;div&gt;&lt;font style=&quot;font-size: 8px;&quot;&gt;建立我國生物多樣性資料管理與流通規範，推動法制化&lt;/font&gt;&lt;/div&gt;" style="shape=process;whiteSpace=wrap;html=1;backgroundOutline=1;fontFamily=Garamond;fontSize=6;fillColor=#F8CECC;" vertex="1" parent="1">
          <mxGeometry x="-110" y="149" width="120" height="61" as="geometry" />
        </mxCell>
        <mxCell id="sUEPmZAmfP3GFt_vuGZX-242" style="edgeStyle=orthogonalEdgeStyle;rounded=0;orthogonalLoop=1;jettySize=auto;html=1;exitX=0;exitY=0.5;exitDx=0;exitDy=0;entryX=1;entryY=0.5;entryDx=0;entryDy=0;fontFamily=Verdana;fontSize=8;fontColor=#FFFFFF;" edge="1" parent="1" source="sUEPmZAmfP3GFt_vuGZX-232" target="sUEPmZAmfP3GFt_vuGZX-180">
          <mxGeometry relative="1" as="geometry" />
        </mxCell>
        <mxCell id="sUEPmZAmfP3GFt_vuGZX-232" value="&lt;div&gt;&lt;font style=&quot;font-size: 8px;&quot;&gt;3-1&lt;/font&gt;&lt;/div&gt;&lt;div&gt;&lt;font style=&quot;font-size: 8px;&quot;&gt;建立夥伴關係運作制度，訂定組織成員的角色定位與權利義務，以此為基礎持續擴增夥伴關係成員&lt;/font&gt;&lt;/div&gt;" style="shape=process;whiteSpace=wrap;html=1;backgroundOutline=1;fontFamily=Garamond;fontSize=6;fillColor=#FFFFFF;" vertex="1" parent="1">
          <mxGeometry x="-110" y="229" width="120" height="61" as="geometry" />
        </mxCell>
        <mxCell id="sUEPmZAmfP3GFt_vuGZX-243" style="edgeStyle=orthogonalEdgeStyle;rounded=0;orthogonalLoop=1;jettySize=auto;html=1;exitX=0;exitY=0.5;exitDx=0;exitDy=0;entryX=1;entryY=0.5;entryDx=0;entryDy=0;fontFamily=Verdana;fontSize=8;fontColor=#FFFFFF;" edge="1" parent="1" source="sUEPmZAmfP3GFt_vuGZX-233" target="sUEPmZAmfP3GFt_vuGZX-183">
          <mxGeometry relative="1" as="geometry" />
        </mxCell>
        <mxCell id="sUEPmZAmfP3GFt_vuGZX-233" value="&lt;div&gt;&lt;font style=&quot;font-size: 8px;&quot;&gt;5-1&lt;/font&gt;&lt;/div&gt;&lt;div&gt;&lt;font style=&quot;font-size: 8px;&quot;&gt;建立地區/國家級的敏感性物種清單，並加強清單內物種之生物多樣性資料蒐集。&lt;/font&gt;&lt;/div&gt;" style="shape=process;whiteSpace=wrap;html=1;backgroundOutline=1;fontFamily=Garamond;fontSize=6;fillColor=#F8CECC;" vertex="1" parent="1">
          <mxGeometry x="-110" y="309" width="120" height="61" as="geometry" />
        </mxCell>
        <mxCell id="sUEPmZAmfP3GFt_vuGZX-240" style="edgeStyle=orthogonalEdgeStyle;rounded=0;orthogonalLoop=1;jettySize=auto;html=1;exitX=0;exitY=0.5;exitDx=0;exitDy=0;entryX=1;entryY=0.5;entryDx=0;entryDy=0;fontFamily=Verdana;fontSize=8;fontColor=#FFFFFF;" edge="1" parent="1" source="sUEPmZAmfP3GFt_vuGZX-238" target="sUEPmZAmfP3GFt_vuGZX-178">
          <mxGeometry relative="1" as="geometry" />
        </mxCell>
        <mxCell id="sUEPmZAmfP3GFt_vuGZX-238" value="&lt;div&gt;&lt;font style=&quot;font-size: 8px;&quot;&gt;1-1&lt;/font&gt;&lt;/div&gt;&lt;div&gt;&lt;font style=&quot;font-size: 8px;&quot;&gt;擴增與更新生物多樣性領域資料標準並提供開放資料模板。&lt;/font&gt;&lt;/div&gt;" style="shape=process;whiteSpace=wrap;html=1;backgroundOutline=1;fontFamily=Garamond;fontSize=6;fillColor=#FFFFFF;" vertex="1" parent="1">
          <mxGeometry x="-110" y="69" width="120" height="61" as="geometry" />
        </mxCell>
        <mxCell id="sUEPmZAmfP3GFt_vuGZX-179" value="&lt;div align=&quot;left&quot;&gt;&lt;span data-sheets-userformat=&quot;{&amp;quot;2&amp;quot;:9213,&amp;quot;3&amp;quot;:{&amp;quot;1&amp;quot;:0},&amp;quot;5&amp;quot;:{&amp;quot;1&amp;quot;:[{&amp;quot;1&amp;quot;:2,&amp;quot;2&amp;quot;:0,&amp;quot;5&amp;quot;:{&amp;quot;1&amp;quot;:2,&amp;quot;2&amp;quot;:0}},{&amp;quot;1&amp;quot;:0,&amp;quot;2&amp;quot;:0,&amp;quot;3&amp;quot;:3},{&amp;quot;1&amp;quot;:1,&amp;quot;2&amp;quot;:0,&amp;quot;4&amp;quot;:1}]},&amp;quot;6&amp;quot;:{&amp;quot;1&amp;quot;:[{&amp;quot;1&amp;quot;:2,&amp;quot;2&amp;quot;:0,&amp;quot;5&amp;quot;:{&amp;quot;1&amp;quot;:2,&amp;quot;2&amp;quot;:0}},{&amp;quot;1&amp;quot;:0,&amp;quot;2&amp;quot;:0,&amp;quot;3&amp;quot;:3},{&amp;quot;1&amp;quot;:1,&amp;quot;2&amp;quot;:0,&amp;quot;4&amp;quot;:1}]},&amp;quot;7&amp;quot;:{&amp;quot;1&amp;quot;:[{&amp;quot;1&amp;quot;:2,&amp;quot;2&amp;quot;:0,&amp;quot;5&amp;quot;:{&amp;quot;1&amp;quot;:2,&amp;quot;2&amp;quot;:0}},{&amp;quot;1&amp;quot;:0,&amp;quot;2&amp;quot;:0,&amp;quot;3&amp;quot;:3},{&amp;quot;1&amp;quot;:1,&amp;quot;2&amp;quot;:0,&amp;quot;4&amp;quot;:1}]},&amp;quot;8&amp;quot;:{&amp;quot;1&amp;quot;:[{&amp;quot;1&amp;quot;:2,&amp;quot;2&amp;quot;:0,&amp;quot;5&amp;quot;:{&amp;quot;1&amp;quot;:2,&amp;quot;2&amp;quot;:0}},{&amp;quot;1&amp;quot;:0,&amp;quot;2&amp;quot;:0,&amp;quot;3&amp;quot;:3},{&amp;quot;1&amp;quot;:1,&amp;quot;2&amp;quot;:0,&amp;quot;4&amp;quot;:1}]},&amp;quot;9&amp;quot;:0,&amp;quot;10&amp;quot;:1,&amp;quot;11&amp;quot;:4,&amp;quot;12&amp;quot;:0,&amp;quot;16&amp;quot;:12}&quot; data-sheets-value=&quot;{&amp;quot;1&amp;quot;:2,&amp;quot;2&amp;quot;:&amp;quot;強化生物多樣性資料庫串連&amp;quot;}&quot; style=&quot;font-size:12pt;font-family:Arial;font-style:normal;&quot;&gt;2. 強化生物多樣性資料庫串連&lt;/span&gt;&lt;/div&gt;" style="ellipse;whiteSpace=wrap;html=1;align=center;newEdgeStyle={&quot;edgeStyle&quot;:&quot;entityRelationEdgeStyle&quot;,&quot;startArrow&quot;:&quot;none&quot;,&quot;endArrow&quot;:&quot;none&quot;,&quot;segment&quot;:10,&quot;curved&quot;:1};treeFolding=1;treeMoving=1;fontFamily=Garamond;fillColor=#97D077;" vertex="1" parent="1">
          <mxGeometry x="-670" y="210.00271604938268" width="440" height="46.79012345679012" as="geometry" />
        </mxCell>
        <mxCell id="sUEPmZAmfP3GFt_vuGZX-180" value="&lt;span data-sheets-userformat=&quot;{&amp;quot;2&amp;quot;:9213,&amp;quot;3&amp;quot;:{&amp;quot;1&amp;quot;:0},&amp;quot;5&amp;quot;:{&amp;quot;1&amp;quot;:[{&amp;quot;1&amp;quot;:2,&amp;quot;2&amp;quot;:0,&amp;quot;5&amp;quot;:{&amp;quot;1&amp;quot;:2,&amp;quot;2&amp;quot;:0}},{&amp;quot;1&amp;quot;:0,&amp;quot;2&amp;quot;:0,&amp;quot;3&amp;quot;:3},{&amp;quot;1&amp;quot;:1,&amp;quot;2&amp;quot;:0,&amp;quot;4&amp;quot;:1}]},&amp;quot;6&amp;quot;:{&amp;quot;1&amp;quot;:[{&amp;quot;1&amp;quot;:2,&amp;quot;2&amp;quot;:0,&amp;quot;5&amp;quot;:{&amp;quot;1&amp;quot;:2,&amp;quot;2&amp;quot;:0}},{&amp;quot;1&amp;quot;:0,&amp;quot;2&amp;quot;:0,&amp;quot;3&amp;quot;:3},{&amp;quot;1&amp;quot;:1,&amp;quot;2&amp;quot;:0,&amp;quot;4&amp;quot;:1}]},&amp;quot;7&amp;quot;:{&amp;quot;1&amp;quot;:[{&amp;quot;1&amp;quot;:2,&amp;quot;2&amp;quot;:0,&amp;quot;5&amp;quot;:{&amp;quot;1&amp;quot;:2,&amp;quot;2&amp;quot;:0}},{&amp;quot;1&amp;quot;:0,&amp;quot;2&amp;quot;:0,&amp;quot;3&amp;quot;:3},{&amp;quot;1&amp;quot;:1,&amp;quot;2&amp;quot;:0,&amp;quot;4&amp;quot;:1}]},&amp;quot;8&amp;quot;:{&amp;quot;1&amp;quot;:[{&amp;quot;1&amp;quot;:2,&amp;quot;2&amp;quot;:0,&amp;quot;5&amp;quot;:{&amp;quot;1&amp;quot;:2,&amp;quot;2&amp;quot;:0}},{&amp;quot;1&amp;quot;:0,&amp;quot;2&amp;quot;:0,&amp;quot;3&amp;quot;:3},{&amp;quot;1&amp;quot;:1,&amp;quot;2&amp;quot;:0,&amp;quot;4&amp;quot;:1}]},&amp;quot;9&amp;quot;:0,&amp;quot;10&amp;quot;:1,&amp;quot;11&amp;quot;:4,&amp;quot;12&amp;quot;:0,&amp;quot;16&amp;quot;:12}&quot; data-sheets-value=&quot;{&amp;quot;1&amp;quot;:2,&amp;quot;2&amp;quot;:&amp;quot;構築生物多樣性資訊網絡合作平台&amp;quot;}&quot; style=&quot;font-size:12pt;font-family:Arial;font-style:normal;&quot;&gt;3. 構築生物多樣性資訊網絡合作平台&lt;/span&gt;" style="ellipse;whiteSpace=wrap;html=1;align=center;newEdgeStyle={&quot;edgeStyle&quot;:&quot;entityRelationEdgeStyle&quot;,&quot;startArrow&quot;:&quot;none&quot;,&quot;endArrow&quot;:&quot;none&quot;,&quot;segment&quot;:10,&quot;curved&quot;:1};treeFolding=1;treeMoving=1;fontFamily=Garamond;fillColor=#97D077;" vertex="1" parent="1">
          <mxGeometry x="-670" y="387.7654320987654" width="440" height="46.79012345679012" as="geometry" />
        </mxCell>
        <mxCell id="sUEPmZAmfP3GFt_vuGZX-181" value="&lt;span data-sheets-userformat=&quot;{&amp;quot;2&amp;quot;:9213,&amp;quot;3&amp;quot;:{&amp;quot;1&amp;quot;:0},&amp;quot;5&amp;quot;:{&amp;quot;1&amp;quot;:[{&amp;quot;1&amp;quot;:2,&amp;quot;2&amp;quot;:0,&amp;quot;5&amp;quot;:{&amp;quot;1&amp;quot;:2,&amp;quot;2&amp;quot;:0}},{&amp;quot;1&amp;quot;:0,&amp;quot;2&amp;quot;:0,&amp;quot;3&amp;quot;:3},{&amp;quot;1&amp;quot;:1,&amp;quot;2&amp;quot;:0,&amp;quot;4&amp;quot;:1}]},&amp;quot;6&amp;quot;:{&amp;quot;1&amp;quot;:[{&amp;quot;1&amp;quot;:2,&amp;quot;2&amp;quot;:0,&amp;quot;5&amp;quot;:{&amp;quot;1&amp;quot;:2,&amp;quot;2&amp;quot;:0}},{&amp;quot;1&amp;quot;:0,&amp;quot;2&amp;quot;:0,&amp;quot;3&amp;quot;:3},{&amp;quot;1&amp;quot;:1,&amp;quot;2&amp;quot;:0,&amp;quot;4&amp;quot;:1}]},&amp;quot;7&amp;quot;:{&amp;quot;1&amp;quot;:[{&amp;quot;1&amp;quot;:2,&amp;quot;2&amp;quot;:0,&amp;quot;5&amp;quot;:{&amp;quot;1&amp;quot;:2,&amp;quot;2&amp;quot;:0}},{&amp;quot;1&amp;quot;:0,&amp;quot;2&amp;quot;:0,&amp;quot;3&amp;quot;:3},{&amp;quot;1&amp;quot;:1,&amp;quot;2&amp;quot;:0,&amp;quot;4&amp;quot;:1}]},&amp;quot;8&amp;quot;:{&amp;quot;1&amp;quot;:[{&amp;quot;1&amp;quot;:2,&amp;quot;2&amp;quot;:0,&amp;quot;5&amp;quot;:{&amp;quot;1&amp;quot;:2,&amp;quot;2&amp;quot;:0}},{&amp;quot;1&amp;quot;:0,&amp;quot;2&amp;quot;:0,&amp;quot;3&amp;quot;:3},{&amp;quot;1&amp;quot;:1,&amp;quot;2&amp;quot;:0,&amp;quot;4&amp;quot;:1}]},&amp;quot;9&amp;quot;:0,&amp;quot;10&amp;quot;:1,&amp;quot;11&amp;quot;:4,&amp;quot;12&amp;quot;:0,&amp;quot;16&amp;quot;:12}&quot; data-sheets-value=&quot;{&amp;quot;1&amp;quot;:2,&amp;quot;2&amp;quot;:&amp;quot;促進跨機關計畫合作與生物多樣性資訊技術交流&amp;quot;}&quot; style=&quot;font-size:12pt;font-family:Arial;font-style:normal;&quot;&gt;4. 促進跨機關計畫合作與生物多樣性資訊技術交流&lt;/span&gt;" style="ellipse;whiteSpace=wrap;html=1;align=center;newEdgeStyle={&quot;edgeStyle&quot;:&quot;entityRelationEdgeStyle&quot;,&quot;startArrow&quot;:&quot;none&quot;,&quot;endArrow&quot;:&quot;none&quot;,&quot;segment&quot;:10,&quot;curved&quot;:1};treeFolding=1;treeMoving=1;fontFamily=Garamond;fillColor=#97D077;" vertex="1" parent="1">
          <mxGeometry x="-670" y="519.9983950617284" width="440" height="46.79012345679012" as="geometry" />
        </mxCell>
        <mxCell id="sUEPmZAmfP3GFt_vuGZX-183" value="&lt;span data-sheets-userformat=&quot;{&amp;quot;2&amp;quot;:9213,&amp;quot;3&amp;quot;:{&amp;quot;1&amp;quot;:0},&amp;quot;5&amp;quot;:{&amp;quot;1&amp;quot;:[{&amp;quot;1&amp;quot;:2,&amp;quot;2&amp;quot;:0,&amp;quot;5&amp;quot;:{&amp;quot;1&amp;quot;:2,&amp;quot;2&amp;quot;:0}},{&amp;quot;1&amp;quot;:0,&amp;quot;2&amp;quot;:0,&amp;quot;3&amp;quot;:3},{&amp;quot;1&amp;quot;:1,&amp;quot;2&amp;quot;:0,&amp;quot;4&amp;quot;:1}]},&amp;quot;6&amp;quot;:{&amp;quot;1&amp;quot;:[{&amp;quot;1&amp;quot;:2,&amp;quot;2&amp;quot;:0,&amp;quot;5&amp;quot;:{&amp;quot;1&amp;quot;:2,&amp;quot;2&amp;quot;:0}},{&amp;quot;1&amp;quot;:0,&amp;quot;2&amp;quot;:0,&amp;quot;3&amp;quot;:3},{&amp;quot;1&amp;quot;:1,&amp;quot;2&amp;quot;:0,&amp;quot;4&amp;quot;:1}]},&amp;quot;7&amp;quot;:{&amp;quot;1&amp;quot;:[{&amp;quot;1&amp;quot;:2,&amp;quot;2&amp;quot;:0,&amp;quot;5&amp;quot;:{&amp;quot;1&amp;quot;:2,&amp;quot;2&amp;quot;:0}},{&amp;quot;1&amp;quot;:0,&amp;quot;2&amp;quot;:0,&amp;quot;3&amp;quot;:3},{&amp;quot;1&amp;quot;:1,&amp;quot;2&amp;quot;:0,&amp;quot;4&amp;quot;:1}]},&amp;quot;8&amp;quot;:{&amp;quot;1&amp;quot;:[{&amp;quot;1&amp;quot;:2,&amp;quot;2&amp;quot;:0,&amp;quot;5&amp;quot;:{&amp;quot;1&amp;quot;:2,&amp;quot;2&amp;quot;:0}},{&amp;quot;1&amp;quot;:0,&amp;quot;2&amp;quot;:0,&amp;quot;3&amp;quot;:3},{&amp;quot;1&amp;quot;:1,&amp;quot;2&amp;quot;:0,&amp;quot;4&amp;quot;:1}]},&amp;quot;9&amp;quot;:0,&amp;quot;10&amp;quot;:1,&amp;quot;11&amp;quot;:4,&amp;quot;12&amp;quot;:0,&amp;quot;16&amp;quot;:12}&quot; data-sheets-value=&quot;{&amp;quot;1&amp;quot;:2,&amp;quot;2&amp;quot;:&amp;quot;加強生物多樣性資訊可用性以支持保育決策&amp;quot;}&quot; style=&quot;font-size:12pt;font-family:Arial;font-style:normal;&quot;&gt;5. 加強生物多樣性資訊可用性以支持保育決策&lt;/span&gt;" style="ellipse;whiteSpace=wrap;html=1;align=center;newEdgeStyle={&quot;edgeStyle&quot;:&quot;entityRelationEdgeStyle&quot;,&quot;startArrow&quot;:&quot;none&quot;,&quot;endArrow&quot;:&quot;none&quot;,&quot;segment&quot;:10,&quot;curved&quot;:1};treeFolding=1;treeMoving=1;fontFamily=Garamond;fillColor=#97D077;" vertex="1" parent="1">
          <mxGeometry x="-680" y="693.2098765432099" width="440" height="46.79012345679012" as="geometry" />
        </mxCell>
      </root>
    </mxGraphModel>
  </diagram>
</mxfile>
